<?xml version="1.0" encoding="utf-8"?>
<!-- Generator: Adobe Adobe Illustrator 24.2.0, SVG Export Plug-In . SVG Version: 6.00 Build 0)  -->
<svg version="1.1" id="katman_1" xmlns="http://www.w3.org/2000/svg" xmlns:xlink="http://www.w3.org/1999/xlink" x="0px" y="0px"
	 width="625.06px" height="561.38px" viewBox="0 0 625.06 561.38" style="enable-background:new 0 0 625.06 561.38;"
	 xml:space="preserve">
<style type="text/css">
	.st0{fill:none;stroke:#FFFFFF;stroke-width:0.1;stroke-miterlimit:10;}
	.st1{fill:#333333;stroke:#333333;stroke-width:23;stroke-miterlimit:10;}
	.st2{fill:#FFFFFF;stroke:#FFFFFF;stroke-width:23;stroke-miterlimit:10;}
	.st3{fill:none;stroke:#5A5A5A;stroke-width:5;stroke-miterlimit:10;}
	.st4{fill:#5B5A5A;stroke:#5A5A5A;stroke-width:5;stroke-miterlimit:10;}
	.st5{fill:#333333;stroke:#333333;stroke-width:5;stroke-miterlimit:10;}
	.st6{fill:#FFFFFF;stroke:#FFFFFF;stroke-width:5;stroke-miterlimit:10;}
	.st7{fill:none;stroke:#FFFFFF;stroke-width:5;stroke-miterlimit:10;}
	.st8{stroke:#000000;stroke-miterlimit:10;}
</style>
<g>
	<polygon class="st1" points="443.32,55 166.66,55 28.33,294.6 166.66,534.19 443.32,534.19 581.65,294.6 	"/>
	<polygon class="st2" points="437.72,66.92 175.13,66.92 43.83,294.33 175.13,521.74 437.72,521.74 569.02,294.33 	"/>
	<line class="st3" x1="321.59" y1="151.4" x2="321.21" y2="45.79"/>
	<line class="st3" x1="293.92" y1="151.53" x2="293.54" y2="47.7"/>
	<line class="st3" x1="296.19" y1="149.32" x2="197.22" y2="149.64"/>
	<line class="st3" x1="443.68" y1="125.05" x2="344.72" y2="125.37"/>
	<line class="st3" x1="419.35" y1="148.92" x2="319.33" y2="149.24"/>
	<line class="st3" x1="270.45" y1="125.61" x2="171.44" y2="125.93"/>
	<line class="st3" x1="346.96" y1="127.66" x2="345.52" y2="46.14"/>
	<line class="st3" x1="268.19" y1="127.79" x2="267.58" y2="46.83"/>
	<line class="st3" x1="241.81" y1="47.26" x2="228.01" y2="82.98"/>
	<line class="st3" x1="189.11" y1="98.32" x2="229.23" y2="81.66"/>
	<line class="st3" x1="371.7" y1="46.15" x2="385.51" y2="79.15"/>
	<line class="st3" x1="425.73" y1="94.34" x2="384.25" y2="77.96"/>
	<circle class="st4" cx="191.63" cy="97.87" r="2.9"/>
	<circle class="st4" cx="175.39" cy="125.21" r="2.9"/>
	<circle class="st4" cx="200.43" cy="149.08" r="2.9"/>
	<circle class="st4" cx="420.68" cy="148.92" r="2.9"/>
	<circle class="st4" cx="444.96" cy="125.05" r="2.9"/>
	<circle class="st4" cx="424.99" cy="93.46" r="2.9"/>
	<polygon class="st5" points="163.99,44.91 445.17,44.57 445.17,53.61 166.66,55 	"/>
	<circle class="st6" cx="396.73" cy="274.16" r="2.9"/>
	<circle class="st7" cx="342.18" cy="341.39" r="2.9"/>
	<circle class="st7" cx="272.6" cy="341.39" r="2.9"/>
	<circle class="st6" cx="221.05" cy="280.86" r="2.9"/>
	<line class="st7" x1="197.46" y1="229.44" x2="182.41" y2="236"/>
	<line class="st7" x1="433.53" y1="235.62" x2="422.08" y2="227.76"/>
	<ellipse class="st6" cx="419.35" cy="225.89" rx="2.86" ry="2.9"/>
	<ellipse class="st6" cx="198.97" cy="228.79" rx="2.86" ry="2.9"/>
	
		<rect x="213.19" y="201.09" transform="matrix(0.7071 0.7071 -0.7071 0.7071 297.8728 -130.4677)" class="st8" width="186.48" height="186.48"/>
	<line class="st3" x1="320.42" y1="439.59" x2="319.27" y2="545.2"/>
	<line class="st3" x1="292.75" y1="439.26" x2="291.61" y2="543.09"/>
	<line class="st3" x1="295.01" y1="441.49" x2="196.04" y2="440.45"/>
	<line class="st3" x1="442.31" y1="466.83" x2="343.36" y2="465.79"/>
	<line class="st3" x1="418.16" y1="442.79" x2="318.14" y2="441.73"/>
	<line class="st3" x1="269.1" y1="465" x2="170.09" y2="463.96"/>
	<line class="st3" x1="345.61" y1="463.51" x2="343.58" y2="545.03"/>
	<line class="st3" x1="266.85" y1="462.81" x2="265.65" y2="543.76"/>
	<line class="st3" x1="239.88" y1="543.15" x2="226.35" y2="507.32"/>
	<line class="st3" x1="187.55" y1="491.7" x2="227.55" y2="508.66"/>
	<line class="st3" x1="369.76" y1="545.2" x2="383.81" y2="512.3"/>
	<line class="st3" x1="424.14" y1="497.41" x2="382.54" y2="513.49"/>
	<circle class="st4" cx="188.61" cy="492.15" r="2.9"/>
	<circle class="st4" cx="172.56" cy="464.7" r="2.9"/>
	<circle class="st4" cx="197.78" cy="441.01" r="2.9"/>
	<circle class="st4" cx="419.49" cy="442.79" r="2.9"/>
	<circle class="st4" cx="443.6" cy="466.83" r="2.9"/>
	<circle class="st4" cx="423.39" cy="498.27" r="2.9"/>
	<polyline class="st3" points="97.33,175.77 166.03,175.65 131.68,223.94 	"/>
	<polyline class="st3" points="38.6,272.22 166.79,272.22 225.97,210.21 	"/>
	<polyline class="st3" points="216.99,179.94 151.17,247.43 84.38,247.43 116.73,192.47 84.38,194.35 	"/>
	<polyline class="st3" points="92.22,415.41 160.91,415.53 126.57,367.24 	"/>
	<polyline class="st3" points="40.37,318.97 160.15,318.97 220.85,380.97 	"/>
	<polyline class="st3" points="211.87,411.24 146.06,343.75 79.27,343.75 111.62,398.71 79.27,397.79 	"/>
	<polyline class="st3" points="524.25,176.62 455.56,175.78 489.41,224.43 	"/>
	<polyline class="st3" points="575.09,273.6 455.56,273.6 395.27,209.72 	"/>
	<polyline class="st3" points="404.56,179.55 469.67,247.71 536.46,248.41 504.68,193.12 529.97,193.99 	"/>
	<polyline class="st3" points="519.16,414.39 450.47,413.8 485.32,365.87 	"/>
	<polyline class="st3" points="572.01,318.49 453.63,314.95 390.9,378.62 	"/>
	<polyline class="st3" points="399.56,408.97 466.08,342.18 532.86,342.87 499.94,397.49 526.35,397.78 	"/>
	<circle class="st4" cx="491.37" cy="223.93" r="2.9"/>
	<circle class="st4" cx="406.03" cy="179.55" r="2.9"/>
	<circle class="st4" cx="396.73" cy="209.72" r="2.9"/>
	<circle class="st4" cx="132.45" cy="223.94" r="2.9"/>
	<circle class="st4" cx="215.45" cy="181.21" r="2.9"/>
	<circle class="st4" cx="225.97" cy="210.21" r="2.9"/>
	<circle class="st4" cx="394.52" cy="376.36" r="2.9"/>
	<circle class="st4" cx="401.2" cy="407.88" r="2.9"/>
	<circle class="st4" cx="486.54" cy="365.87" r="2.9"/>
	<circle class="st4" cx="220.09" cy="379.85" r="2.9"/>
	<circle class="st4" cx="208.76" cy="408.34" r="2.9"/>
	<circle class="st4" cx="126.57" cy="367.24" r="2.9"/>
	<polygon class="st5" points="160.32,44.91 448.35,44.57 164.81,53.26 25.7,294.6 168.32,534.19 444.98,534.19 582.24,295.95 
		443.13,55 448,46.65 593.76,294.6 449.4,544.09 161.71,542.7 19.09,294.6 	"/>
	<polyline class="st7" points="227.16,329.34 300.14,405.15 290.58,349.96 	"/>
	<polyline class="st7" points="241.23,328.84 205.99,290.74 251.74,238.67 	"/>
	<polyline class="st7" points="333.29,213.98 306.42,188.15 282.15,213.98 263.65,199.79 	"/>
	<polyline class="st7" points="386.9,327.26 315.42,404.48 323.89,349.11 	"/>
	<polyline class="st7" points="371.54,328.73 406.03,289.95 359.27,238.78 376.78,221.03 	"/>
	<polyline class="st7" points="282.15,241.21 307.72,213.98 333.29,241.21 363.03,210.21 	"/>
	<circle class="st6" cx="240.41" cy="327.26" r="2.9"/>
	<circle class="st6" cx="290.83" cy="352.87" r="2.9"/>
	<circle class="st6" cx="371.8" cy="328.73" r="2.9"/>
	<circle class="st6" cx="323.08" cy="352.87" r="2.9"/>
	<circle class="st6" cx="283.19" cy="241.21" r="2.9"/>
	<circle class="st6" cx="331.18" cy="212.62" r="2.9"/>
	<line class="st6" x1="228.87" y1="331.63" x2="217.19" y2="344.29"/>
	<line class="st6" x1="384.98" y1="329.34" x2="395.27" y2="341.39"/>
	<line class="st7" x1="251.5" y1="241.21" x2="235.11" y2="226.83"/>
	<polyline class="st7" points="323.73,251.14 375.91,297.33 346.96,328.57 	"/>
	<polyline class="st7" points="261.49,257.77 232.74,289.85 270.74,330.89 	"/>
	<polyline class="st7" points="266.52,289.42 303.63,257.34 340.82,289.42 	"/>
	<circle class="st6" cx="269.7" cy="302.65" r="2.9"/>
	<circle class="st6" cx="339.28" cy="289.42" r="2.9"/>
	<circle class="st6" cx="268.82" cy="328.84" r="2.9"/>
	<circle class="st6" cx="325.98" cy="253.5" r="2.9"/>
	<polyline class="st7" points="267.84,286.52 306.42,286.52 306.42,305.55 342.14,302.65 305.03,334.73 267.84,302.65 	"/>
</g>
</svg>
